<svg width="150" height="191" viewBox="0 0 150 191" fill="none" xmlns="http://www.w3.org/2000/svg">
<path fill-rule="evenodd" clip-rule="evenodd" d="M74 25.7143C66.8857 25.7143 61.1429 19.9714 61.1429 12.8571C61.1429 5.74286 66.8857 0 74 0C81.1143 0 86.8571 5.74286 86.8571 12.8571C86.8571 19.9714 81.1143 25.7143 74 25.7143ZM134 77.1429C134 86.6571 126.371 94.2857 116.857 94.2857H108.286C98.7714 94.2857 91.1429 86.6571 91.1429 77.1429L108.286 42.8571H99.7143C95 42.8571 91.1429 39 91.1429 34.2857H82.5714V102.857C86.1714 102.857 91.1429 106.714 91.1429 111.429H99.7143C103.314 111.429 108.286 115.286 108.286 120H39.7143C39.7143 115.286 44.6857 111.429 48.2857 111.429H56.8571C56.8571 106.714 61.8286 102.857 65.4286 102.857H65.6857L65.4286 34.2857H56.8571C56.8571 39 53 42.8571 48.2857 42.8571H39.7143L56.8571 77.1429C56.8571 86.6571 49.2286 94.2857 39.7143 94.2857H31.1429C21.6286 94.2857 14 86.6571 14 77.1429L31.1429 42.8571H22.5714V34.2857H48.2857C48.2857 29.5714 52.1429 25.7143 56.8571 25.7143H91.1429C95.8571 25.7143 99.7143 29.5714 99.7143 34.2857H125.429V42.8571H116.857L134 77.1429ZM35.4286 51.4286L22.5714 77.1429H48.2857L35.4286 51.4286ZM125.429 77.1429L112.571 51.4286L99.7143 77.1429H125.429Z" fill="white"/>
<path d="M3.94641 147.68H6.58641V160.16H22.4264V147.68H25.0664V176H22.4264V162.56H6.58641V176H3.94641V147.68ZM32.8136 147.68H50.1336V150.08H35.4536V160.16H49.2136V162.56H35.4536V173.6H50.7736V176H32.8136V147.68ZM56.5245 147.68H59.1645V173.6H72.3645V176H56.5245V147.68ZM75.7645 147.68H82.0045V170.24H93.5645V176H75.7645V147.68ZM108.449 173.56H108.369C107.702 174.6 106.809 175.347 105.689 175.8C104.596 176.253 103.436 176.48 102.209 176.48C101.302 176.48 100.422 176.347 99.5689 176.08C98.7422 175.84 98.0089 175.467 97.3689 174.96C96.7289 174.453 96.2222 173.827 95.8489 173.08C95.4756 172.333 95.2889 171.467 95.2889 170.48C95.2889 169.36 95.4889 168.413 95.8889 167.64C96.3156 166.867 96.8756 166.227 97.5689 165.72C98.2889 165.213 99.1022 164.827 100.009 164.56C100.916 164.267 101.849 164.053 102.809 163.92C103.796 163.787 104.769 163.707 105.729 163.68C106.716 163.653 107.622 163.64 108.449 163.64C108.449 162.573 108.062 161.733 107.289 161.12C106.542 160.48 105.649 160.16 104.609 160.16C103.622 160.16 102.716 160.373 101.889 160.8C101.089 161.2 100.369 161.76 99.7289 162.48L96.5289 159.2C97.6489 158.16 98.9556 157.387 100.449 156.88C101.942 156.347 103.489 156.08 105.089 156.08C106.849 156.08 108.289 156.307 109.409 156.76C110.556 157.187 111.462 157.827 112.129 158.68C112.822 159.533 113.302 160.587 113.569 161.84C113.836 163.067 113.969 164.493 113.969 166.12V176H108.449V173.56ZM106.969 167.48C106.516 167.48 105.942 167.507 105.249 167.56C104.582 167.587 103.929 167.693 103.289 167.88C102.676 168.067 102.142 168.347 101.689 168.72C101.262 169.093 101.049 169.613 101.049 170.28C101.049 171 101.356 171.533 101.969 171.88C102.582 172.227 103.222 172.4 103.889 172.4C104.476 172.4 105.036 172.32 105.569 172.16C106.129 172 106.622 171.773 107.049 171.48C107.476 171.187 107.809 170.813 108.049 170.36C108.316 169.907 108.449 169.373 108.449 168.76V167.48H106.969ZM115.413 156.56H121.813L125.773 168.76H125.853L129.173 156.56H135.733L139.333 168.76H139.413L143.053 156.56H149.133L142.213 176H136.293L132.253 163.08H132.173L128.573 176H122.533L115.413 156.56Z" fill="white"/>
</svg>
