<svg width="191" height="55" viewBox="0 0 191 55" fill="none" xmlns="http://www.w3.org/2000/svg">
<path fill-rule="evenodd" clip-rule="evenodd" d="M17 13.2857C14.9843 13.2857 13.3571 11.6586 13.3571 9.64286C13.3571 7.62714 14.9843 6 17 6C19.0157 6 20.6428 7.62714 20.6428 9.64286C20.6428 11.6586 19.0157 13.2857 17 13.2857ZM34 27.8571C34 30.5529 31.8385 32.7143 29.1428 32.7143H26.7143C24.0185 32.7143 21.8571 30.5529 21.8571 27.8571L26.7143 18.1429H24.2857C22.95 18.1429 21.8571 17.05 21.8571 15.7143H19.4285V35.1429C20.4485 35.1429 21.8571 36.2357 21.8571 37.5714H24.2857C25.3057 37.5714 26.7143 38.6643 26.7143 40H7.28569C7.28569 38.6643 8.69426 37.5714 9.71426 37.5714H12.1428C12.1428 36.2357 13.5514 35.1429 14.5714 35.1429H14.6443L14.5714 15.7143H12.1428C12.1428 17.05 11.05 18.1429 9.71426 18.1429H7.28569L12.1428 27.8571C12.1428 30.5529 9.98141 32.7143 7.28569 32.7143H4.85712C2.16141 32.7143 -2.21439e-05 30.5529 -2.21439e-05 27.8571L4.85712 18.1429H2.42855V15.7143H9.71426C9.71426 14.3786 10.8071 13.2857 12.1428 13.2857H21.8571C23.1928 13.2857 24.2857 14.3786 24.2857 15.7143H31.5714V18.1429H29.1428L34 27.8571ZM6.07141 20.5714L2.42855 27.8571H9.71426L6.07141 20.5714ZM31.5714 27.8571L27.9286 20.5714L24.2857 27.8571H31.5714Z" fill="white"/>
<path d="M44.9064 11.68H47.7864V23.96H63.2264V11.68H66.1064V40H63.2264V26.6H47.7864V40H44.9064V11.68ZM76.6536 37.36H91.8136V40H73.7736V11.68H91.3336V14.32H76.6536V23.96H90.3736V26.6H76.6536V37.36ZM100.365 37.36H113.565V40H97.4845V11.68H100.365V37.36ZM116.765 11.68H123.005V34.24H134.565V40H116.765V11.68ZM149.449 37.56H149.369C148.702 38.6 147.809 39.3467 146.689 39.8C145.596 40.2533 144.436 40.48 143.209 40.48C142.302 40.48 141.422 40.3467 140.569 40.08C139.742 39.84 139.009 39.4667 138.369 38.96C137.729 38.4533 137.222 37.8267 136.849 37.08C136.476 36.3333 136.289 35.4667 136.289 34.48C136.289 33.36 136.489 32.4133 136.889 31.64C137.316 30.8667 137.876 30.2267 138.569 29.72C139.289 29.2133 140.102 28.8267 141.009 28.56C141.916 28.2667 142.849 28.0533 143.809 27.92C144.796 27.7867 145.769 27.7067 146.729 27.68C147.716 27.6533 148.622 27.64 149.449 27.64C149.449 26.5733 149.062 25.7333 148.289 25.12C147.542 24.48 146.649 24.16 145.609 24.16C144.622 24.16 143.716 24.3733 142.889 24.8C142.089 25.2 141.369 25.76 140.729 26.48L137.529 23.2C138.649 22.16 139.956 21.3867 141.449 20.88C142.942 20.3467 144.489 20.08 146.089 20.08C147.849 20.08 149.289 20.3067 150.409 20.76C151.556 21.1867 152.462 21.8267 153.129 22.68C153.822 23.5333 154.302 24.5867 154.569 25.84C154.836 27.0667 154.969 28.4933 154.969 30.12V40H149.449V37.56ZM147.969 31.48C147.516 31.48 146.942 31.5067 146.249 31.56C145.582 31.5867 144.929 31.6933 144.289 31.88C143.676 32.0667 143.142 32.3467 142.689 32.72C142.262 33.0933 142.049 33.6133 142.049 34.28C142.049 35 142.356 35.5333 142.969 35.88C143.582 36.2267 144.222 36.4 144.889 36.4C145.476 36.4 146.036 36.32 146.569 36.16C147.129 36 147.622 35.7733 148.049 35.48C148.476 35.1867 148.809 34.8133 149.049 34.36C149.316 33.9067 149.449 33.3733 149.449 32.76V31.48H147.969ZM156.413 20.56H162.813L166.773 32.76H166.853L170.173 20.56H176.733L180.333 32.76H180.413L184.053 20.56H190.133L183.213 40H177.293L173.253 27.08H173.173L169.573 40H163.533L156.413 20.56Z" fill="white"/>
</svg>
